<!-- Generated by IcoMoon.io -->
<svg version="1.1" xmlns="http://www.w3.org/2000/svg" width="1024" height="1024" viewBox="0 0 1024 1024">
<title></title>
<g id="icomoon-ignore">
</g>
<path fill="none" stroke-linejoin="miter" stroke-linecap="butt" stroke-miterlimit="10" stroke-width="56.8889" stroke="#000" d="M329.956 512h182.044M329.956 512c-150.692 0-273.067 121.867-273.067 273.067M329.956 512v-182.044M329.956 512c-150.692 0-273.067-122.374-273.067-273.067v-182.044h182.044M512 512v182.044M512 512v-182.044M512 512h182.044M512 694.044h-182.044M512 694.044c0 150.693-122.374 273.067-273.067 273.067h-182.044v-182.044M512 694.044c0 150.693 122.374 273.067 273.067 273.067M329.956 694.044c-50.062 0-91.022 40.96-91.022 91.022M329.956 694.044c0 50.062-40.96 91.022-91.022 91.022M238.933 785.067h-182.044M512 329.956c0-151.198-122.374-273.067-273.067-273.067M512 329.956h182.044M512 329.956c0-151.198 122.374-273.067 273.067-273.067h182.044v182.044M329.956 329.956c0-50.062-40.96-91.022-91.022-91.022M329.956 329.956c-50.062 0-91.022-40.96-91.022-91.022M238.933 238.933v-182.044M694.044 512c150.693 0 273.067-122.374 273.067-273.067M694.044 512v182.044M694.044 512c150.693 0 273.067 121.867 273.067 273.067v182.044h-182.044M694.044 329.956c50.062 0 91.022-40.96 91.022-91.022M694.044 329.956c0-50.062 40.96-91.022 91.022-91.022M785.067 238.933h182.044M694.044 694.044c0 50.062 40.96 91.022 91.022 91.022M694.044 694.044c50.062 0 91.022 40.96 91.022 91.022M785.067 785.067v182.044"></path>
</svg>
